<?xml version="1.0" encoding="utf-8"?>
<!-- Generator: Adobe Illustrator 26.0.3, SVG Export Plug-In . SVG Version: 6.00 Build 0)  -->
<svg version="1.1" id="Layer_1" xmlns="http://www.w3.org/2000/svg" xmlns:xlink="http://www.w3.org/1999/xlink" x="0px" y="0px"
	 width="20px" height="15px" viewBox="0 0 20 15" style="enable-background:new 0 0 20 15;" xml:space="preserve">
<style type="text/css">
	.st0{clip-path:url(#SVGID_00000084506673497506258170000002308337213122284437_);}
	.st1{fill:#717171;}
</style>
<g>
	<defs>
		<rect id="SVGID_1_" x="0.5" y="0.5" width="19" height="14"/>
	</defs>
	<clipPath id="SVGID_00000083062428240851614040000009480230682791621558_">
		<use xlink:href="#SVGID_1_"  style="overflow:visible;"/>
	</clipPath>
	<g style="clip-path:url(#SVGID_00000083062428240851614040000009480230682791621558_);">
		<path class="st1" d="M19.5,7.5c0,0-0.1-0.1-0.1-0.1c-0.6-1.7-1.7-3.2-3-4.3c-1.2-1-2.5-1.8-4-2.2C11.3,0.5,10,0.4,8.8,0.6
			C7.2,0.8,5.6,1.4,4.3,2.4c-1.3,1-2.4,2.3-3.2,3.8C0.9,6.6,0.7,7,0.5,7.4c0,0.1,0,0.2,0,0.3c0.9,2.3,2.3,4.1,4.2,5.3
			c1.3,0.8,2.7,1.3,4.2,1.5c1.9,0.2,3.8-0.1,5.5-1.1c1.7-0.9,3.1-2.2,4.1-3.9c0.3-0.6,0.6-1.2,0.9-1.8C19.4,7.6,19.5,7.6,19.5,7.5
			L19.5,7.5z M5.7,7.5c0-2.6,1.9-4.7,4.3-4.7c1.1,0,2.2,0.5,3,1.4c0.8,0.9,1.3,2.1,1.3,3.3c0,0.6-0.1,1.2-0.3,1.8
			c-0.2,0.6-0.5,1.1-0.9,1.5c-0.4,0.4-0.9,0.8-1.4,1c-0.5,0.2-1.1,0.4-1.7,0.4c-0.6,0-1.1-0.1-1.7-0.4c-0.5-0.2-1-0.6-1.4-1
			S6.2,9.9,6,9.3S5.7,8.1,5.7,7.5L5.7,7.5z"/>
		<path class="st1" d="M10,10.3c1.4,0,2.6-1.3,2.6-2.8c0-0.7-0.3-1.5-0.8-2C11.3,5,10.7,4.7,10,4.7C8.6,4.7,7.4,6,7.4,7.5
			c0,0.7,0.3,1.5,0.8,2C8.6,10,9.3,10.3,10,10.3L10,10.3z"/>
	</g>
</g>
</svg>
