<?xml version="1.0" encoding="utf-8"?>
<!-- Generator: Adobe Illustrator 26.0.3, SVG Export Plug-In . SVG Version: 6.00 Build 0)  -->
<svg version="1.1" id="Layer_1" xmlns="http://www.w3.org/2000/svg" xmlns:xlink="http://www.w3.org/1999/xlink" x="0px" y="0px"
	 width="20px" height="15px" viewBox="0 0 20 15" style="enable-background:new 0 0 20 15;" xml:space="preserve">
<style type="text/css">
	.st0{fill:none;stroke:#717171;stroke-width:2;stroke-linecap:round;}
	.st1{fill:#717171;}
</style>
<g>
	<path class="st0" d="M9.6,13v-1.5v-0.7"/>
	<path class="st0" d="M12.9,11.9v-1.5V9.7"/>
	<path class="st0" d="M6.3,11.9v-1.5V9.7"/>
	<path class="st0" d="M16.2,10.5V8.4V7.3"/>
	<path class="st0" d="M3,9.6V7.4V6.3"/>
	<path class="st1" d="M18.3,2c0.7,0,1.2,0.5,1.1,1.2c-0.1,0.8-0.3,1.5-0.6,2.3c-0.5,1.1-1.2,2.1-2.1,2.9c-0.9,0.8-1.9,1.5-3.1,2
		s-2.4,0.7-3.6,0.7c-1.2,0-2.5-0.2-3.6-0.7c-1.2-0.5-2.2-1.1-3.1-2C2.4,7.6,1.7,6.6,1.2,5.5C0.9,4.8,0.7,4,0.6,3.2
		C0.5,2.6,1,2,1.7,2l0,0C2.4,2,2.9,2.6,3,3.2c0.1,0.5,0.2,0.9,0.4,1.4C3.8,5.4,4.3,6.2,5,6.8c0.7,0.6,1.4,1.1,2.3,1.5
		C8.1,8.6,9.1,8.8,10,8.8c0.9,0,1.9-0.2,2.7-0.5c0.9-0.3,1.6-0.8,2.3-1.5c0.7-0.6,1.2-1.4,1.5-2.2c0.2-0.4,0.3-0.9,0.4-1.4
		C17.1,2.6,17.6,2,18.3,2L18.3,2z"/>
</g>
</svg>
