<svg width="20" height="20" viewBox="0 0 20 20" fill="none" xmlns="http://www.w3.org/2000/svg">
    <path d="M12.9573 6.86702L8.98826 11.193L6.99327 9.13502C6.72027 8.86202 6.30027 8.82002 5.98527 9.07202C5.64927 9.32402 5.60727 9.80702 5.85927 10.122L8.27427 13.209C8.31627 13.251 8.35826 13.314 8.42126 13.356C8.82026 13.671 9.38727 13.608 9.70227 13.23L9.72327 13.209L14.1123 7.87502C14.3643 7.56002 14.3433 7.11902 14.0493 6.84602C13.7133 6.55202 13.2303 6.57302 12.9573 6.86702Z" fill="#00d200" />
    <path d="M9.975 0C4.473 0 0 4.473 0 9.975C0 15.477 4.473 19.95 9.975 19.95C15.477 19.95 19.95 15.477 19.95 9.975C19.95 4.473 15.477 0 9.975 0ZM9.975 18.207C5.439 18.207 1.743 14.511 1.743 9.975C1.743 5.439 5.439 1.743 9.975 1.743C14.511 1.743 18.207 5.439 18.207 9.975C18.207 14.511 14.511 18.207 9.975 18.207Z" fill="#00d200" />
</svg>
