<svg width="20" height="20" viewBox="0 0 20 20" fill="none" xmlns="http://www.w3.org/2000/svg">
<path d="M9.975 0C4.473 0 0 4.473 0 9.975C0 15.477 4.473 19.95 9.975 19.95C15.477 19.95 19.95 15.477 19.95 9.975C19.95 4.473 15.477 0 9.975 0ZM9.975 18.207C5.439 18.207 1.743 14.511 1.743 9.975C1.743 5.439 5.439 1.743 9.975 1.743C14.511 1.743 18.207 5.439 18.207 9.975C18.207 14.511 14.511 18.207 9.975 18.207Z" fill="#b70000"/>
<path d="M13 7L7 13M7 7L13 13" stroke="#b70000" stroke-width="1.5" stroke-linecap="round" stroke-linejoin="round"/>
</svg>
